<svg xmlns="http://www.w3.org/2000/svg" viewBox="0 0 400 400" width="400" height="400" role="img"><rect x="20" y="20" width="360" height="360" rx="40" fill="#ece7f2"/><circle cx="200.0" cy="180" r="130" fill="#ffffff" opacity="0.35"/><line x1="187" y1="248" x2="142" y2="83" stroke="#5b7a4a" stroke-width="4"/><ellipse cx="172" cy="190" rx="9" ry="12" fill="#8e6fc0" transform="rotate(-19.32 172 190)"/><ellipse cx="168" cy="176" rx="9" ry="12" fill="#8e6fc0" transform="rotate(-19.32 168 176)"/><ellipse cx="164" cy="161" rx="9" ry="12" fill="#8e6fc0" transform="rotate(-19.32 164 161)"/><ellipse cx="160" cy="146" rx="9" ry="12" fill="#8e6fc0" transform="rotate(-19.32 160 146)"/><ellipse cx="155" cy="132" rx="9" ry="12" fill="#8e6fc0" transform="rotate(-19.32 155 132)"/><ellipse cx="151" cy="117" rx="9" ry="12" fill="#8e6fc0" transform="rotate(-19.32 151 117)"/><ellipse cx="147" cy="102" rx="9" ry="12" fill="#8e6fc0" transform="rotate(-19.32 147 102)"/><line x1="192" y1="248" x2="161" y2="77" stroke="#5b7a4a" stroke-width="4"/><ellipse cx="181" cy="188" rx="9" ry="12" fill="#8e6fc0" transform="rotate(-12.88 181 188)"/><ellipse cx="178" cy="173" rx="9" ry="12" fill="#8e6fc0" transform="rotate(-12.88 178 173)"/><ellipse cx="175" cy="158" rx="9" ry="12" fill="#8e6fc0" transform="rotate(-12.88 175 158)"/><ellipse cx="173" cy="143" rx="9" ry="12" fill="#8e6fc0" transform="rotate(-12.88 173 143)"/><ellipse cx="170" cy="128" rx="9" ry="12" fill="#8e6fc0" transform="rotate(-12.88 170 128)"/><ellipse cx="167" cy="113" rx="9" ry="12" fill="#8e6fc0" transform="rotate(-12.88 167 113)"/><ellipse cx="165" cy="98" rx="9" ry="12" fill="#8e6fc0" transform="rotate(-12.88 165 98)"/><line x1="196" y1="248" x2="180" y2="74" stroke="#5b7a4a" stroke-width="4"/><ellipse cx="190" cy="187" rx="9" ry="12" fill="#8e6fc0" transform="rotate(-6.44 190 187)"/><ellipse cx="189" cy="172" rx="9" ry="12" fill="#8e6fc0" transform="rotate(-6.44 189 172)"/><ellipse cx="188" cy="156" rx="9" ry="12" fill="#8e6fc0" transform="rotate(-6.44 188 156)"/><ellipse cx="186" cy="141" rx="9" ry="12" fill="#8e6fc0" transform="rotate(-6.44 186 141)"/><ellipse cx="185" cy="126" rx="9" ry="12" fill="#8e6fc0" transform="rotate(-6.44 185 126)"/><ellipse cx="184" cy="110" rx="9" ry="12" fill="#8e6fc0" transform="rotate(-6.44 184 110)"/><ellipse cx="182" cy="95" rx="9" ry="12" fill="#8e6fc0" transform="rotate(-6.44 182 95)"/><line x1="200" y1="248" x2="200" y2="73" stroke="#5b7a4a" stroke-width="4"/><ellipse cx="200" cy="187" rx="9" ry="12" fill="#8e6fc0" transform="rotate(0 200 187)"/><ellipse cx="200" cy="171" rx="9" ry="12" fill="#8e6fc0" transform="rotate(0 200 171)"/><ellipse cx="200" cy="156" rx="9" ry="12" fill="#8e6fc0" transform="rotate(0 200 156)"/><ellipse cx="200" cy="140" rx="9" ry="12" fill="#8e6fc0" transform="rotate(0 200 140)"/><ellipse cx="200" cy="125" rx="9" ry="12" fill="#8e6fc0" transform="rotate(0 200 125)"/><ellipse cx="200" cy="109" rx="9" ry="12" fill="#8e6fc0" transform="rotate(0 200 109)"/><ellipse cx="200" cy="94" rx="9" ry="12" fill="#8e6fc0" transform="rotate(0 200 94)"/><line x1="204" y1="248" x2="220" y2="74" stroke="#5b7a4a" stroke-width="4"/><ellipse cx="210" cy="187" rx="9" ry="12" fill="#8e6fc0" transform="rotate(6.44 210 187)"/><ellipse cx="211" cy="172" rx="9" ry="12" fill="#8e6fc0" transform="rotate(6.44 211 172)"/><ellipse cx="212" cy="156" rx="9" ry="12" fill="#8e6fc0" transform="rotate(6.44 212 156)"/><ellipse cx="214" cy="141" rx="9" ry="12" fill="#8e6fc0" transform="rotate(6.44 214 141)"/><ellipse cx="215" cy="126" rx="9" ry="12" fill="#8e6fc0" transform="rotate(6.44 215 126)"/><ellipse cx="216" cy="110" rx="9" ry="12" fill="#8e6fc0" transform="rotate(6.44 216 110)"/><ellipse cx="218" cy="95" rx="9" ry="12" fill="#8e6fc0" transform="rotate(6.44 218 95)"/><line x1="208" y1="248" x2="239" y2="77" stroke="#5b7a4a" stroke-width="4"/><ellipse cx="219" cy="188" rx="9" ry="12" fill="#8e6fc0" transform="rotate(12.88 219 188)"/><ellipse cx="222" cy="173" rx="9" ry="12" fill="#8e6fc0" transform="rotate(12.88 222 173)"/><ellipse cx="225" cy="158" rx="9" ry="12" fill="#8e6fc0" transform="rotate(12.88 225 158)"/><ellipse cx="227" cy="143" rx="9" ry="12" fill="#8e6fc0" transform="rotate(12.88 227 143)"/><ellipse cx="230" cy="128" rx="9" ry="12" fill="#8e6fc0" transform="rotate(12.88 230 128)"/><ellipse cx="233" cy="113" rx="9" ry="12" fill="#8e6fc0" transform="rotate(12.88 233 113)"/><ellipse cx="235" cy="98" rx="9" ry="12" fill="#8e6fc0" transform="rotate(12.88 235 98)"/><line x1="213" y1="248" x2="258" y2="83" stroke="#5b7a4a" stroke-width="4"/><ellipse cx="228" cy="190" rx="9" ry="12" fill="#8e6fc0" transform="rotate(19.32 228 190)"/><ellipse cx="232" cy="176" rx="9" ry="12" fill="#8e6fc0" transform="rotate(19.32 232 176)"/><ellipse cx="236" cy="161" rx="9" ry="12" fill="#8e6fc0" transform="rotate(19.32 236 161)"/><ellipse cx="240" cy="146" rx="9" ry="12" fill="#8e6fc0" transform="rotate(19.32 240 146)"/><ellipse cx="245" cy="132" rx="9" ry="12" fill="#8e6fc0" transform="rotate(19.32 245 132)"/><ellipse cx="249" cy="117" rx="9" ry="12" fill="#8e6fc0" transform="rotate(19.32 249 117)"/><ellipse cx="253" cy="102" rx="9" ry="12" fill="#8e6fc0" transform="rotate(19.32 253 102)"/><path d="M80.0,250 L320.0,250 L288.0,356 Q200.0,374 112.0,356 Z" fill="#c9a24a"/><path d="M200.0,250 L320.0,250 L288.0,356 Q200.0,374 200.0,356 Z" fill="#7a5f1f" opacity="0.18"/><rect x="72.0" y="230" width="256" height="24" rx="8" fill="#dab55f"/><ellipse cx="200.0" cy="242" rx="114" ry="11" fill="#3b2f2a"/></svg>