<svg xmlns="http://www.w3.org/2000/svg" viewBox="0 0 400 400" width="400" height="400" role="img"><rect x="20" y="20" width="360" height="360" rx="40" fill="#e4efe3"/><circle cx="200.0" cy="180" r="130" fill="#ffffff" opacity="0.35"/><path d="M182.0,248.0 Q152.3,170.2 95.4,109.4 Q125.1,187.2 182.0,248.0 Z" fill="#6ba36f" stroke="#3f7048" stroke-width="1.5"/><path d="M182.0,248.0 L95.4,109.4" stroke="#3f7048" stroke-width="1" fill="none" opacity="0.5"/><path d="M188.0,248.0 Q171.6,161.9 125.3,87.5 Q141.8,173.6 188.0,248.0 Z" fill="#6ba36f" stroke="#3f7048" stroke-width="1.5"/><path d="M188.0,248.0 L125.3,87.5" stroke="#3f7048" stroke-width="1" fill="none" opacity="0.5"/><path d="M194.0,248.0 Q193.0,156.0 160.5,70.0 Q161.5,162.0 194.0,248.0 Z" fill="#6ba36f" stroke="#3f7048" stroke-width="1.5"/><path d="M194.0,248.0 L160.5,70.0" stroke="#3f7048" stroke-width="1" fill="none" opacity="0.5"/><path d="M200.0,248.0 Q216.0,153.0 200.0,58.0 Q184.0,153.0 200.0,248.0 Z" fill="#6ba36f" stroke="#3f7048" stroke-width="1.5"/><path d="M200.0,248.0 L200.0,58.0" stroke="#3f7048" stroke-width="1" fill="none" opacity="0.5"/><path d="M206.0,248.0 Q238.5,162.0 239.5,70.0 Q207.0,156.0 206.0,248.0 Z" fill="#6ba36f" stroke="#3f7048" stroke-width="1.5"/><path d="M206.0,248.0 L239.5,70.0" stroke="#3f7048" stroke-width="1" fill="none" opacity="0.5"/><path d="M212.0,248.0 Q258.2,173.6 274.7,87.5 Q228.4,161.9 212.0,248.0 Z" fill="#6ba36f" stroke="#3f7048" stroke-width="1.5"/><path d="M212.0,248.0 L274.7,87.5" stroke="#3f7048" stroke-width="1" fill="none" opacity="0.5"/><path d="M218.0,248.0 Q274.9,187.2 304.6,109.4 Q247.7,170.2 218.0,248.0 Z" fill="#6ba36f" stroke="#3f7048" stroke-width="1.5"/><path d="M218.0,248.0 L304.6,109.4" stroke="#3f7048" stroke-width="1" fill="none" opacity="0.5"/><path d="M80.0,250 L320.0,250 L288.0,356 Q200.0,374 112.0,356 Z" fill="#c9764a"/><path d="M200.0,250 L320.0,250 L288.0,356 Q200.0,374 200.0,356 Z" fill="#7a3f22" opacity="0.18"/><rect x="72.0" y="230" width="256" height="24" rx="8" fill="#dd8a5c"/><ellipse cx="200.0" cy="242" rx="114" ry="11" fill="#3b2f2a"/></svg>