<svg xmlns="http://www.w3.org/2000/svg" viewBox="0 0 400 400" width="400" height="400" role="img"><rect x="20" y="20" width="360" height="360" rx="40" fill="#e2eee6"/><circle cx="200.0" cy="180" r="130" fill="#ffffff" opacity="0.35"/><path d="M200.0,248.0 Q151.0,204.7 85.9,210.9 Q134.9,254.2 200.0,248.0 Z" fill="#4e9c5f" stroke="#2c6238" stroke-width="1.5"/><path d="M200.0,248.0 L85.9,210.9" stroke="#2c6238" stroke-width="1" fill="none" opacity="0.5"/><path d="M200.0,248.0 Q159.4,178.2 81.8,155.7 Q122.4,225.5 200.0,248.0 Z" fill="#4e9c5f" stroke="#2c6238" stroke-width="1.5"/><path d="M200.0,248.0 L81.8,155.7" stroke="#2c6238" stroke-width="1" fill="none" opacity="0.5"/><path d="M200.0,248.0 Q187.4,158.3 116.0,102.5 Q128.6,192.3 200.0,248.0 Z" fill="#4e9c5f" stroke="#2c6238" stroke-width="1.5"/><path d="M200.0,248.0 L116.0,102.5" stroke="#2c6238" stroke-width="1" fill="none" opacity="0.5"/><path d="M200.0,248.0 Q220.0,154.1 169.1,72.7 Q149.1,166.6 200.0,248.0 Z" fill="#4e9c5f" stroke="#2c6238" stroke-width="1.5"/><path d="M200.0,248.0 L169.1,72.7" stroke="#2c6238" stroke-width="1" fill="none" opacity="0.5"/><path d="M200.0,248.0 Q253.5,169.4 236.6,75.8 Q183.1,154.4 200.0,248.0 Z" fill="#4e9c5f" stroke="#2c6238" stroke-width="1.5"/><path d="M200.0,248.0 L236.6,75.8" stroke="#2c6238" stroke-width="1" fill="none" opacity="0.5"/><path d="M200.0,248.0 Q272.8,195.6 288.0,107.2 Q215.1,159.6 200.0,248.0 Z" fill="#4e9c5f" stroke="#2c6238" stroke-width="1.5"/><path d="M200.0,248.0 L288.0,107.2" stroke="#2c6238" stroke-width="1" fill="none" opacity="0.5"/><path d="M200.0,248.0 Q276.0,226.7 315.0,158.1 Q239.1,179.4 200.0,248.0 Z" fill="#4e9c5f" stroke="#2c6238" stroke-width="1.5"/><path d="M200.0,248.0 L315.0,158.1" stroke="#2c6238" stroke-width="1" fill="none" opacity="0.5"/><path d="M200.0,248.0 Q263.2,254.8 310.3,212.2 Q247.1,205.3 200.0,248.0 Z" fill="#4e9c5f" stroke="#2c6238" stroke-width="1.5"/><path d="M200.0,248.0 L310.3,212.2" stroke="#2c6238" stroke-width="1" fill="none" opacity="0.5"/><path d="M200.0,248.0 Q151.9,221.4 97.3,214.6 Q145.4,241.2 200.0,248.0 Z" fill="#eef3e6" stroke="#2c6238" stroke-width="1.5"/><path d="M200.0,248.0 L97.3,214.6" stroke="#2c6238" stroke-width="1" fill="none" opacity="0.5"/><path d="M200.0,248.0 Q174.0,175.7 124.4,117.1 Q150.4,189.3 200.0,248.0 Z" fill="#eef3e6" stroke="#2c6238" stroke-width="1.5"/><path d="M200.0,248.0 L124.4,117.1" stroke="#2c6238" stroke-width="1" fill="none" opacity="0.5"/><path d="M200.0,248.0 Q230.6,173.5 232.9,93.1 Q202.4,167.5 200.0,248.0 Z" fill="#eef3e6" stroke="#2c6238" stroke-width="1.5"/><path d="M200.0,248.0 L232.9,93.1" stroke="#2c6238" stroke-width="1" fill="none" opacity="0.5"/><path d="M200.0,248.0 Q259.2,217.0 303.5,167.1 Q244.4,198.1 200.0,248.0 Z" fill="#eef3e6" stroke="#2c6238" stroke-width="1.5"/><path d="M200.0,248.0 L303.5,167.1" stroke="#2c6238" stroke-width="1" fill="none" opacity="0.5"/><path d="M80.0,250 L320.0,250 L288.0,356 Q200.0,374 112.0,356 Z" fill="#4e6d5a"/><path d="M200.0,250 L320.0,250 L288.0,356 Q200.0,374 200.0,356 Z" fill="#2c4133" opacity="0.18"/><rect x="72.0" y="230" width="256" height="24" rx="8" fill="#5f7f6b"/><ellipse cx="200.0" cy="242" rx="114" ry="11" fill="#3b2f2a"/></svg>